<?xml version="1.0" encoding="UTF-8"?>
<svg id="Capa_2" data-name="Capa 2" xmlns="http://www.w3.org/2000/svg" width="383.25" height="379.51" viewBox="0 0 383.25 379.51">
  <g id="Capa_1-2" data-name="Capa 1">
    <g>
      <path d="M383.25,135.49v203.6l-54.1.17-81.39,40.25v-40.42h-44.91v-203.6h180.4ZM326.36,181.15h-25.08c-2.56,0-10.49,2.87-13.02,4.2-14.77,7.76-21.32,26.76-15.05,42.2-26.64,7.39-33.85,41.19-11.99,58.78,3.22,2.59,12.14,7.1,16.1,7.1h60.26v-21.71h-57.26c-.33,0-4.47-1.94-5.12-2.37-5.86-3.83-6.69-12.13-2.01-17.27.58-.63,5.29-3.56,5.63-3.56h47.53v-22.46h-25.82c-.73,0-4.32-3-5.05-3.93-3.48-4.39-3.7-10.29-.16-14.76.57-.71,4.8-3.77,5.21-3.77h25.82v-22.46Z" fill="#0f3768"/>
      <path d="M180.4,0v203.6h-44.91v41.17l-81.96-41.17H0V0h180.4ZM134.74,157.94v-73.73c0-3.32-4.05-12.65-5.86-15.85-16.65-29.4-59.88-29.55-77.08-.47-1.75,2.96-6.13,12.57-6.13,15.57v74.48h21.71v-33.68h45.66v33.68h21.71Z" fill="#0f3768"/>
      <polygon points="101.8 283.7 101.8 327.11 157.94 327.11 157.94 350.32 78.6 350.32 78.6 283.7 62.56 294.16 50.25 275.19 90.2 248.56 130.15 275.19 117.84 294.16 101.8 283.7" fill="#0f3768"/>
      <path d="M304.65,13.47v66.62l15.99-9.64c1.12.22,12.69,17.73,12.51,18.92l-40.11,26.4-40.11-26.4c-.18-1.24,11.41-18.66,12.55-18.95,2.07-.53,12.9,8.71,15.95,9.66v-43.42h-56.14V13.47h79.35Z" fill="#0f3768"/>
      <path d="M113.03,102.55h-45.66v-15.35c0-.93,2.19-6.42,2.84-7.64,8.33-15.57,32.28-15.15,40.24.49.55,1.08,2.58,6.41,2.58,7.15v15.35Z" fill="#0f3768"/>
    </g>
  </g>
</svg>